<svg width="40" height="32" viewBox="0 0 40 32" fill="none" xmlns="http://www.w3.org/2000/svg">
<path d="M34.689 0.171875H5.26885C2.64263 0.171875 0.507812 2.39583 0.507812 5.13171V26.0788C0.507812 28.8147 2.64263 31.0386 5.26885 31.0386H34.681C37.3072 31.0386 39.442 28.8147 39.442 26.0788V5.1401C39.4501 2.40422 37.3153 0.171875 34.689 0.171875ZM37.275 26.0788C37.275 27.5642 36.1149 28.7727 34.689 28.7727H5.26885C3.84296 28.7727 2.68291 27.5642 2.68291 26.0788V5.1401C2.68291 3.65467 3.84296 2.44618 5.26885 2.44618H34.681C36.1069 2.44618 37.2669 3.65467 37.2669 5.1401V26.0788H37.275Z" fill="white"/>
<path d="M25.063 15.3413L34.5851 6.44551C35.0282 6.0259 35.0685 5.31255 34.6657 4.84259C34.2629 4.38101 33.5781 4.33905 33.127 4.75866L19.9959 17.0366L17.4341 14.6532C17.426 14.6448 17.418 14.6364 17.418 14.628C17.3616 14.5692 17.3052 14.5189 17.2408 14.4685L6.81642 4.75027C6.36528 4.33066 5.68053 4.37262 5.27774 4.84259C4.87494 5.31255 4.91522 6.0259 5.36635 6.44551L15.0012 15.4169L5.40663 24.7742C4.97161 25.2022 4.94744 25.9156 5.3583 26.3772C5.57581 26.6121 5.86582 26.738 6.15583 26.738C6.42168 26.738 6.68752 26.6373 6.89697 26.4359L16.6366 16.9442L19.2789 19.4032C19.4884 19.5962 19.7461 19.6885 20.0039 19.6885C20.2617 19.6885 20.5276 19.5878 20.729 19.3948L23.4438 16.8603L33.127 26.4443C33.3365 26.6541 33.6104 26.7548 33.8762 26.7548C34.1662 26.7548 34.4482 26.6373 34.6657 26.4023C35.0765 25.9492 35.0604 25.2274 34.6254 24.7994L25.063 15.3413Z" fill="white"/>
</svg>
