<svg width="18" height="32" viewBox="0 0 18 32" fill="none" xmlns="http://www.w3.org/2000/svg">
<path d="M15.8907 0.140625H2.68096C1.58043 0.140625 0.679688 1.07809 0.679688 2.22546V28.9217C0.679688 30.069 1.58043 31.0074 2.68096 31.0074H15.8907C16.9912 31.0074 17.892 30.0708 17.892 28.9226V2.22546C17.892 1.07809 16.9912 0.140625 15.8907 0.140625ZM7.17281 1.6434H11.3988C11.5326 1.6434 11.641 1.75628 11.641 1.8965C11.641 2.03584 11.5326 2.14873 11.3988 2.14873H7.17281C7.03905 2.14873 6.93069 2.03584 6.93069 1.8965C6.93069 1.75628 7.03905 1.6434 7.17281 1.6434ZM9.28583 29.965C8.73302 29.965 8.28519 29.4985 8.28519 28.9217C8.28519 28.3449 8.73302 27.8793 9.28583 27.8793C9.83863 27.8793 10.2865 28.3449 10.2865 28.9217C10.2865 29.4985 9.83863 29.965 9.28583 29.965ZM16.4994 27.1491H2.07228V3.4469H16.4994V27.1491Z" fill="white"/>
</svg>
