<svg width="90" height="91" viewBox="0 0 90 91" fill="none" xmlns="http://www.w3.org/2000/svg">
<path d="M90 45.5C90 70.629 69.8528 91 45 91C20.1472 91 0 70.629 0 45.5C0 20.371 20.1472 0 45 0C69.8528 0 90 20.371 90 45.5ZM3.16677 45.5C3.16677 68.8606 21.8961 87.798 45 87.798C68.1039 87.798 86.8332 68.8606 86.8332 45.5C86.8332 22.1394 68.1039 3.20195 45 3.20195C21.8961 3.20195 3.16677 22.1394 3.16677 45.5Z" fill="#DDDDDD"/>
<circle cx="44.5" cy="45.5" r="39.5" fill="#DDDDDD"/>
<path d="M18.1816 67.1445H17.8203C17.8086 67.2305 17.7884 67.3105 17.7598 67.3848C17.7311 67.4577 17.6927 67.5208 17.6445 67.5742C17.5964 67.6289 17.5371 67.6712 17.4668 67.7012C17.3978 67.7311 17.3158 67.7461 17.2207 67.7461C17.1335 67.7461 17.0573 67.7324 16.9922 67.7051C16.9271 67.6764 16.8704 67.6374 16.8223 67.5879C16.7741 67.5397 16.7344 67.4837 16.7031 67.4199C16.6719 67.3561 16.6465 67.2878 16.627 67.2148C16.6074 67.1432 16.5931 67.0703 16.584 66.9961C16.5762 66.9206 16.5723 66.8477 16.5723 66.7773V66.377C16.5723 66.3066 16.5762 66.2344 16.584 66.1602C16.5931 66.0846 16.6074 66.0111 16.627 65.9395C16.6465 65.8678 16.6719 65.8001 16.7031 65.7363C16.7357 65.6725 16.776 65.6165 16.8242 65.5684C16.8711 65.5202 16.9271 65.4824 16.9922 65.4551C17.0586 65.4264 17.1348 65.4121 17.2207 65.4121C17.3158 65.4121 17.3978 65.4284 17.4668 65.4609C17.5371 65.4922 17.5964 65.5358 17.6445 65.5918C17.6927 65.6478 17.7311 65.7129 17.7598 65.7871C17.7884 65.8613 17.8086 65.9414 17.8203 66.0273H18.1816C18.166 65.8919 18.1335 65.7682 18.084 65.6562C18.0358 65.5443 17.9714 65.4479 17.8906 65.3672C17.8099 65.2878 17.7135 65.2266 17.6016 65.1836C17.4896 65.1393 17.3626 65.1172 17.2207 65.1172C17.1022 65.1172 16.9954 65.1341 16.9004 65.168C16.8053 65.2005 16.7207 65.2461 16.6465 65.3047C16.571 65.3633 16.5059 65.4329 16.4512 65.5137C16.3978 65.5931 16.3535 65.6797 16.3184 65.7734C16.2819 65.8672 16.2546 65.9655 16.2363 66.0684C16.2194 66.1712 16.2103 66.2754 16.209 66.3809V66.7773C16.2103 66.8828 16.2194 66.987 16.2363 67.0898C16.2546 67.1927 16.2819 67.291 16.3184 67.3848C16.3535 67.4785 16.3978 67.5651 16.4512 67.6445C16.5059 67.724 16.571 67.793 16.6465 67.8516C16.7207 67.9102 16.8053 67.9564 16.9004 67.9902C16.9967 68.0228 17.1035 68.0391 17.2207 68.0391C17.3574 68.0391 17.4811 68.0176 17.5918 67.9746C17.7038 67.9303 17.8008 67.8685 17.8828 67.7891C17.9635 67.7109 18.0293 67.6172 18.0801 67.5078C18.1309 67.3971 18.1647 67.276 18.1816 67.1445ZM21.0202 65.4648V65.1562H18.9108V65.4648H19.7897V68H20.1413V65.4648H21.0202ZM22.2591 66.8594H22.8196C22.9472 66.8581 23.0677 66.8385 23.1809 66.8008C23.2955 66.763 23.3958 66.7083 23.4817 66.6367C23.5677 66.5651 23.6354 66.4772 23.6848 66.373C23.7356 66.2676 23.761 66.1465 23.761 66.0098C23.761 65.873 23.7356 65.752 23.6848 65.6465C23.6354 65.541 23.5677 65.4525 23.4817 65.3809C23.3958 65.3092 23.2955 65.2546 23.1809 65.2168C23.0677 65.179 22.9472 65.1589 22.8196 65.1562H21.8977V68H22.2591V66.8594ZM22.2591 66.5625V65.4531H22.8196C22.9029 65.4544 22.9798 65.4681 23.0501 65.4941C23.1217 65.5202 23.1835 65.5573 23.2356 65.6055C23.2864 65.6536 23.3261 65.7122 23.3548 65.7812C23.3847 65.8503 23.3997 65.9277 23.3997 66.0137C23.3997 66.0996 23.3847 66.1764 23.3548 66.2441C23.3261 66.3105 23.2858 66.3672 23.2337 66.4141C23.1816 66.4609 23.1204 66.4974 23.0501 66.5234C22.9798 66.5482 22.9029 66.5612 22.8196 66.5625H22.2591ZM26.4765 66.7422V66.418C26.4752 66.3164 26.4661 66.2135 26.4491 66.1094C26.4335 66.0052 26.4088 65.9049 26.3749 65.8086C26.3398 65.7122 26.2955 65.6224 26.2421 65.5391C26.19 65.4544 26.1275 65.3809 26.0546 65.3184C25.9817 65.2559 25.8977 65.207 25.8027 65.1719C25.7076 65.1354 25.6015 65.1172 25.4843 65.1172C25.3671 65.1172 25.261 65.1354 25.1659 65.1719C25.0722 65.207 24.9889 65.2559 24.9159 65.3184C24.843 65.3822 24.7799 65.4564 24.7265 65.541C24.6744 65.6243 24.6314 65.7142 24.5976 65.8105C24.5624 65.9069 24.5364 66.0072 24.5195 66.1113C24.5038 66.2142 24.4954 66.3164 24.4941 66.418V66.7422C24.4954 66.8438 24.5045 66.946 24.5214 67.0488C24.5383 67.1517 24.5644 67.2513 24.5995 67.3477C24.6334 67.444 24.677 67.5345 24.7304 67.6191C24.7838 67.7025 24.8469 67.7754 24.9198 67.8379C24.9928 67.9004 25.0761 67.9499 25.1698 67.9863C25.2649 68.0215 25.371 68.0391 25.4882 68.0391C25.6054 68.0391 25.7109 68.0215 25.8046 67.9863C25.8997 67.9499 25.9836 67.9004 26.0566 67.8379C26.1295 67.7754 26.192 67.7025 26.2441 67.6191C26.2974 67.5358 26.3411 67.446 26.3749 67.3496C26.4088 67.2533 26.4335 67.1536 26.4491 67.0508C26.4661 66.9466 26.4752 66.8438 26.4765 66.7422ZM26.1191 66.4141V66.7422C26.1178 66.8099 26.1132 66.8809 26.1054 66.9551C26.0989 67.0293 26.0865 67.1022 26.0683 67.1738C26.0487 67.2467 26.0234 67.3164 25.9921 67.3828C25.9622 67.4479 25.9244 67.5052 25.8788 67.5547C25.832 67.6055 25.776 67.6458 25.7109 67.6758C25.6471 67.7057 25.5728 67.7207 25.4882 67.7207C25.4036 67.7207 25.3293 67.7057 25.2655 67.6758C25.2017 67.6458 25.1464 67.6055 25.0995 67.5547C25.0527 67.5052 25.0136 67.4473 24.9823 67.3809C24.9511 67.3145 24.9257 67.2448 24.9062 67.1719C24.8866 67.1003 24.8723 67.0273 24.8632 66.9531C24.8554 66.8789 24.8508 66.8086 24.8495 66.7422V66.4141C24.8508 66.3477 24.8554 66.278 24.8632 66.2051C24.8723 66.1309 24.8866 66.0573 24.9062 65.9844C24.9244 65.9128 24.9491 65.8444 24.9804 65.7793C25.0116 65.7129 25.0507 65.6543 25.0976 65.6035C25.1445 65.554 25.1998 65.5143 25.2636 65.4844C25.3274 65.4544 25.401 65.4395 25.4843 65.4395C25.5689 65.4395 25.6432 65.4544 25.707 65.4844C25.7708 65.513 25.8261 65.5521 25.873 65.6016C25.9198 65.6523 25.9589 65.7109 25.9902 65.7773C26.0214 65.8424 26.0468 65.9108 26.0663 65.9824C26.0846 66.0553 26.0976 66.1289 26.1054 66.2031C26.1132 66.276 26.1178 66.3464 26.1191 66.4141ZM28.7701 65.1562L27.7252 67.25L27.7271 65.1562H27.3658V68H27.7271L28.772 65.9043L28.7701 68H29.1314V65.1562H28.7701ZM32.0695 65.4648V65.1562H29.9602V65.4648H30.8391V68H31.1906V65.4648H32.0695ZM34.4784 66.6855V66.3789H33.2909V65.4648H34.658V65.1562H32.9295V68H34.6756V67.6934H33.2909V66.6855H34.4784ZM37.4204 65.1562H35.8794L35.8716 66.6719C35.8716 66.7357 35.8703 66.7969 35.8677 66.8555C35.8664 66.9128 35.8638 66.9674 35.8598 67.0195C35.8533 67.1172 35.8429 67.2051 35.8286 67.2832C35.8143 67.3613 35.796 67.4284 35.7739 67.4844C35.7453 67.5573 35.7088 67.6126 35.6645 67.6504C35.6203 67.6868 35.5675 67.7051 35.5063 67.7051H35.4282V68H35.5278C35.602 68 35.6697 67.9902 35.7309 67.9707C35.7921 67.9512 35.8475 67.9225 35.897 67.8848C35.9542 67.8379 36.0037 67.7786 36.0454 67.707C36.0884 67.6341 36.1235 67.5482 36.1509 67.4492C36.1704 67.3776 36.186 67.2995 36.1977 67.2148C36.2095 67.1289 36.2186 67.0378 36.2251 66.9414C36.2277 66.8984 36.2296 66.8548 36.2309 66.8105C36.2322 66.765 36.2329 66.7188 36.2329 66.6719L36.2368 65.4531H37.0591V68H37.4204V65.1562ZM38.7882 66.3262V65.1562H38.4269V68H39.3077C39.4588 68 39.5929 67.9798 39.7101 67.9395C39.8286 67.8978 39.9282 67.8398 40.0089 67.7656C40.0896 67.6914 40.1508 67.6022 40.1925 67.498C40.2355 67.3939 40.257 67.2793 40.257 67.1543C40.257 67.028 40.2355 66.9141 40.1925 66.8125C40.1508 66.7109 40.0896 66.6237 40.0089 66.5508C39.9282 66.4792 39.8286 66.4238 39.7101 66.3848C39.5929 66.3457 39.4588 66.3262 39.3077 66.3262H38.7882ZM38.7882 66.6211H39.3077C39.4093 66.6211 39.4965 66.6354 39.5695 66.6641C39.6437 66.6914 39.7049 66.7285 39.753 66.7754C39.8012 66.8236 39.8364 66.8802 39.8585 66.9453C39.882 67.0091 39.8937 67.0775 39.8937 67.1504C39.8937 67.2246 39.882 67.2956 39.8585 67.3633C39.8364 67.4297 39.8012 67.4883 39.753 67.5391C39.7049 67.5898 39.6437 67.6302 39.5695 67.6602C39.4965 67.6901 39.4093 67.7051 39.3077 67.7051H38.7882V66.6211ZM42.9841 68V65.1562H42.6423V66.3789H41.4763V65.1562H41.1365V68H41.4763V66.6855H42.6423V68H42.9841ZM45.3207 67.2637L45.5453 68H45.9047L45.0023 65.1562H44.6996L43.7816 68H44.143L44.3715 67.2637H45.3207ZM44.4691 66.9492L44.85 65.7148L45.225 66.9492H44.4691ZM48.0987 68H48.46V65.1562H47.6123C47.46 65.1562 47.322 65.1745 47.1983 65.2109C47.0759 65.2474 46.9717 65.3001 46.8858 65.3691C46.7985 65.4395 46.7315 65.526 46.6846 65.6289C46.639 65.7305 46.6163 65.8464 46.6163 65.9766C46.6163 66.0833 46.6325 66.1797 46.6651 66.2656C46.6989 66.3516 46.7484 66.4277 46.8135 66.4941C46.8591 66.5397 46.9125 66.5814 46.9737 66.6191C47.0349 66.6556 47.1032 66.6875 47.1788 66.7148L46.5127 68H46.8975L47.4932 66.8145H48.0987V68ZM46.9776 65.9727C46.9776 65.8932 46.9913 65.8216 47.0186 65.7578C47.0459 65.6927 47.0863 65.6374 47.1397 65.5918C47.1931 65.5475 47.2588 65.5137 47.337 65.4902C47.4164 65.4655 47.5082 65.4531 47.6123 65.4531H48.0987V66.5156H47.6006C47.4991 66.5156 47.4092 66.502 47.3311 66.4746C47.253 66.4473 47.1879 66.4089 47.1358 66.3594C47.0837 66.3112 47.044 66.2539 47.0166 66.1875C46.9906 66.1211 46.9776 66.0495 46.9776 65.9727ZM52.9359 66.7129L53.8226 68H54.2659L53.2191 66.5332L54.1859 65.1562H53.7718L52.9066 66.418H52.6019V65.1562H52.2405V68H52.6019V66.7129H52.9359ZM56.8623 66.7422V66.418C56.861 66.3164 56.8518 66.2135 56.8349 66.1094C56.8193 66.0052 56.7946 65.9049 56.7607 65.8086C56.7255 65.7122 56.6813 65.6224 56.6279 65.5391C56.5758 65.4544 56.5133 65.3809 56.4404 65.3184C56.3675 65.2559 56.2835 65.207 56.1884 65.1719C56.0934 65.1354 55.9873 65.1172 55.8701 65.1172C55.7529 65.1172 55.6468 65.1354 55.5517 65.1719C55.458 65.207 55.3746 65.2559 55.3017 65.3184C55.2288 65.3822 55.1657 65.4564 55.1123 65.541C55.0602 65.6243 55.0172 65.7142 54.9834 65.8105C54.9482 65.9069 54.9222 66.0072 54.9052 66.1113C54.8896 66.2142 54.8811 66.3164 54.8798 66.418V66.7422C54.8811 66.8438 54.8903 66.946 54.9072 67.0488C54.9241 67.1517 54.9502 67.2513 54.9853 67.3477C55.0192 67.444 55.0628 67.5345 55.1162 67.6191C55.1696 67.7025 55.2327 67.7754 55.3056 67.8379C55.3785 67.9004 55.4619 67.9499 55.5556 67.9863C55.6507 68.0215 55.7568 68.0391 55.874 68.0391C55.9912 68.0391 56.0966 68.0215 56.1904 67.9863C56.2854 67.9499 56.3694 67.9004 56.4423 67.8379C56.5153 67.7754 56.5778 67.7025 56.6298 67.6191C56.6832 67.5358 56.7268 67.446 56.7607 67.3496C56.7946 67.2533 56.8193 67.1536 56.8349 67.0508C56.8518 66.9466 56.861 66.8438 56.8623 66.7422ZM56.5048 66.4141V66.7422C56.5035 66.8099 56.499 66.8809 56.4912 66.9551C56.4847 67.0293 56.4723 67.1022 56.4541 67.1738C56.4345 67.2467 56.4091 67.3164 56.3779 67.3828C56.3479 67.4479 56.3102 67.5052 56.2646 67.5547C56.2177 67.6055 56.1617 67.6458 56.0966 67.6758C56.0328 67.7057 55.9586 67.7207 55.874 67.7207C55.7893 67.7207 55.7151 67.7057 55.6513 67.6758C55.5875 67.6458 55.5322 67.6055 55.4853 67.5547C55.4384 67.5052 55.3994 67.4473 55.3681 67.3809C55.3369 67.3145 55.3115 67.2448 55.292 67.1719C55.2724 67.1003 55.2581 67.0273 55.249 66.9531C55.2412 66.8789 55.2366 66.8086 55.2353 66.7422V66.4141C55.2366 66.3477 55.2412 66.278 55.249 66.2051C55.2581 66.1309 55.2724 66.0573 55.292 65.9844C55.3102 65.9128 55.3349 65.8444 55.3662 65.7793C55.3974 65.7129 55.4365 65.6543 55.4834 65.6035C55.5302 65.554 55.5856 65.5143 55.6494 65.4844C55.7132 65.4544 55.7867 65.4395 55.8701 65.4395C55.9547 65.4395 56.0289 65.4544 56.0927 65.4844C56.1565 65.513 56.2119 65.5521 56.2588 65.6016C56.3056 65.6523 56.3447 65.7109 56.3759 65.7773C56.4072 65.8424 56.4326 65.9108 56.4521 65.9824C56.4703 66.0553 56.4834 66.1289 56.4912 66.2031C56.499 66.276 56.5035 66.3464 56.5048 66.4141ZM58.1715 65.1562H57.7242V68H58.0758V66.8652L58.0465 65.7188L58.5289 67.209H58.7359L59.2613 65.6777L59.232 66.8652V68H59.5836V65.1562H59.1344L58.6344 66.5781L58.1715 65.1562ZM62.2795 68V65.1562H60.5139V68H60.8752V65.4531H61.9182V68H62.2795ZM64.6571 67.2637L64.8817 68H65.2411L64.3387 65.1562H64.036L63.118 68H63.4794L63.7079 67.2637H64.6571ZM63.8055 66.9492L64.1864 65.7148L64.5614 66.9492H63.8055ZM67.8452 68V65.1562H67.5034V66.3789H66.3374V65.1562H65.9976V68H66.3374V66.6855H67.5034V68H67.8452ZM70.2052 65.1562L69.1603 67.25L69.1623 65.1562H68.8009V68H69.1623L70.2072 65.9043L70.2052 68H70.5666V65.1562H70.2052ZM72.9598 68H73.3211V65.1562H72.4734C72.3211 65.1562 72.1831 65.1745 72.0594 65.2109C71.937 65.2474 71.8328 65.3001 71.7469 65.3691C71.6596 65.4395 71.5926 65.526 71.5457 65.6289C71.5001 65.7305 71.4773 65.8464 71.4773 65.9766C71.4773 66.0833 71.4936 66.1797 71.5262 66.2656C71.56 66.3516 71.6095 66.4277 71.6746 66.4941C71.7202 66.5397 71.7736 66.5814 71.8348 66.6191C71.896 66.6556 71.9643 66.6875 72.0398 66.7148L71.3738 68H71.7586L72.3543 66.8145H72.9598V68ZM71.8387 65.9727C71.8387 65.8932 71.8523 65.8216 71.8797 65.7578C71.907 65.6927 71.9474 65.6374 72.0008 65.5918C72.0542 65.5475 72.1199 65.5137 72.198 65.4902C72.2775 65.4655 72.3693 65.4531 72.4734 65.4531H72.9598V66.5156H72.4617C72.3602 66.5156 72.2703 66.502 72.1922 66.4746C72.1141 66.4473 72.049 66.4089 71.9969 66.3594C71.9448 66.3112 71.9051 66.2539 71.8777 66.1875C71.8517 66.1211 71.8387 66.0495 71.8387 65.9727Z" fill="black"/>
<path d="M25.3097 32.95L25.0997 32.095L30.8447 25.15L31.0997 25.96L25.3097 32.95ZM23.3747 34.045C23.3747 33.905 23.3797 33.785 23.3897 33.685C23.3997 33.575 23.4197 33.48 23.4497 33.4C23.7197 33.38 23.9297 33.335 24.0797 33.265C24.2297 33.185 24.3347 33.055 24.3947 32.875C24.4547 32.685 24.4847 32.425 24.4847 32.095V25.765C24.4847 25.425 24.4547 25.165 24.3947 24.985C24.3347 24.805 24.2297 24.675 24.0797 24.595C23.9297 24.515 23.7197 24.47 23.4497 24.46C23.4197 24.38 23.3997 24.285 23.3897 24.175C23.3797 24.065 23.3747 23.945 23.3747 23.815C23.5647 23.825 23.7547 23.835 23.9447 23.845C24.1447 23.845 24.3497 23.85 24.5597 23.86C24.7697 23.86 24.9797 23.86 25.1897 23.86C25.4097 23.86 25.6197 23.86 25.8197 23.86C26.0197 23.85 26.2147 23.845 26.4047 23.845C26.6047 23.835 26.8047 23.825 27.0047 23.815C27.0047 23.945 26.9997 24.065 26.9897 24.175C26.9797 24.285 26.9597 24.38 26.9297 24.46C26.6697 24.47 26.4597 24.515 26.2997 24.595C26.1497 24.675 26.0447 24.805 25.9847 24.985C25.9247 25.165 25.8947 25.425 25.8947 25.765V32.095C25.8947 32.425 25.9247 32.685 25.9847 32.875C26.0447 33.055 26.1497 33.185 26.2997 33.265C26.4597 33.335 26.6697 33.38 26.9297 33.4C26.9597 33.48 26.9797 33.575 26.9897 33.685C26.9997 33.785 27.0047 33.905 27.0047 34.045C26.7047 34.025 26.3997 34.01 26.0897 34C25.7797 34 25.4797 34 25.1897 34C24.8997 34 24.5897 34 24.2597 34C23.9297 34.01 23.6347 34.025 23.3747 34.045ZM29.3597 34.045C29.3597 33.905 29.3647 33.785 29.3747 33.685C29.3847 33.575 29.4047 33.48 29.4347 33.4C29.7047 33.38 29.9147 33.335 30.0647 33.265C30.2147 33.185 30.3197 33.055 30.3797 32.875C30.4397 32.685 30.4697 32.425 30.4697 32.095V25.765C30.4697 25.425 30.4397 25.165 30.3797 24.985C30.3197 24.805 30.2147 24.675 30.0647 24.595C29.9147 24.515 29.7047 24.47 29.4347 24.46C29.4047 24.38 29.3847 24.285 29.3747 24.175C29.3647 24.065 29.3597 23.945 29.3597 23.815C29.5497 23.825 29.7397 23.835 29.9297 23.845C30.1297 23.845 30.3347 23.85 30.5447 23.86C30.7547 23.86 30.9647 23.86 31.1747 23.86C31.3947 23.86 31.6047 23.86 31.8047 23.86C32.0047 23.85 32.1997 23.845 32.3897 23.845C32.5897 23.835 32.7897 23.825 32.9897 23.815C32.9897 23.945 32.9847 24.065 32.9747 24.175C32.9647 24.285 32.9447 24.38 32.9147 24.46C32.6547 24.47 32.4447 24.515 32.2847 24.595C32.1347 24.675 32.0297 24.805 31.9697 24.985C31.9097 25.165 31.8797 25.425 31.8797 25.765V32.095C31.8797 32.425 31.9097 32.685 31.9697 32.875C32.0297 33.055 32.1347 33.185 32.2847 33.265C32.4447 33.335 32.6547 33.38 32.9147 33.4C32.9447 33.48 32.9647 33.575 32.9747 33.685C32.9847 33.785 32.9897 33.905 32.9897 34.045C32.6897 34.025 32.3847 34.01 32.0747 34C31.7647 34 31.4647 34 31.1747 34C30.8847 34 30.5747 34 30.2447 34C29.9147 34.01 29.6197 34.025 29.3597 34.045ZM40.0086 32.83C39.7386 33.26 39.4036 33.585 39.0036 33.805C38.6036 34.025 38.1186 34.135 37.5486 34.135C37.0386 34.135 36.5436 34.005 36.0636 33.745C35.5936 33.475 35.2036 33.08 34.8936 32.56C34.5836 32.03 34.4286 31.375 34.4286 30.595C34.4286 29.995 34.5486 29.42 34.7886 28.87C35.0286 28.32 35.3786 27.87 35.8386 27.52C36.3086 27.17 36.8786 26.995 37.5486 26.995C38.0086 26.995 38.4286 27.05 38.8086 27.16C39.1986 27.27 39.5336 27.44 39.8136 27.67C39.7736 27.96 39.7436 28.245 39.7236 28.525C39.7136 28.805 39.7086 29.09 39.7086 29.38C39.6286 29.42 39.5186 29.45 39.3786 29.47C39.2486 29.49 39.1286 29.5 39.0186 29.5C38.9586 28.92 38.7886 28.475 38.5086 28.165C38.2286 27.855 37.8686 27.7 37.4286 27.7C36.9386 27.7 36.5486 27.93 36.2586 28.39C35.9686 28.85 35.8236 29.51 35.8236 30.37C35.8236 30.87 35.9036 31.345 36.0636 31.795C36.2336 32.235 36.4786 32.595 36.7986 32.875C37.1186 33.145 37.5086 33.28 37.9686 33.28C38.2886 33.28 38.5886 33.205 38.8686 33.055C39.1586 32.905 39.4136 32.69 39.6336 32.41C39.7136 32.45 39.7886 32.51 39.8586 32.59C39.9286 32.66 39.9786 32.74 40.0086 32.83ZM41.6776 34.12C41.4676 34.12 41.2776 34.085 41.1076 34.015C40.9376 33.945 40.8076 33.87 40.7176 33.79C40.6676 33.62 40.6526 33.415 40.6726 33.175C40.6926 32.925 40.7276 32.735 40.7776 32.605C40.8876 32.635 41.0026 32.655 41.1226 32.665C41.2426 32.675 41.3326 32.68 41.3926 32.68C41.7926 32.68 42.1076 32.515 42.3376 32.185C42.5776 31.855 42.7576 31.39 42.8776 30.79C43.0076 30.18 43.1076 29.465 43.1776 28.645C43.1976 28.395 43.1976 28.21 43.1776 28.09C43.1676 27.96 43.0976 27.875 42.9676 27.835C42.8376 27.785 42.6176 27.75 42.3076 27.73C42.2776 27.64 42.2576 27.54 42.2476 27.43C42.2376 27.31 42.2326 27.2 42.2326 27.1C42.4926 27.11 42.8576 27.12 43.3276 27.13C43.8076 27.13 44.4576 27.13 45.2776 27.13C45.8176 27.13 46.2676 27.13 46.6276 27.13C46.9976 27.12 47.3076 27.115 47.5576 27.115C47.8076 27.105 48.0176 27.095 48.1876 27.085C48.1876 27.215 48.1826 27.335 48.1726 27.445C48.1626 27.545 48.1426 27.64 48.1126 27.73C47.8126 27.73 47.5876 27.82 47.4376 28C47.2976 28.17 47.2276 28.515 47.2276 29.035V32.095C47.2276 32.615 47.2976 32.965 47.4376 33.145C47.5876 33.315 47.8126 33.4 48.1126 33.4C48.1426 33.49 48.1626 33.585 48.1726 33.685C48.1826 33.785 48.1876 33.905 48.1876 34.045C47.9676 34.025 47.7176 34.01 47.4376 34C47.1576 34 46.8626 34 46.5526 34C46.2426 34 45.9476 34 45.6676 34C45.3876 34.01 45.1376 34.025 44.9176 34.045C44.9176 33.905 44.9226 33.785 44.9326 33.685C44.9426 33.585 44.9626 33.49 44.9926 33.4C45.2926 33.4 45.5126 33.315 45.6526 33.145C45.8026 32.965 45.8776 32.615 45.8776 32.095V28.72C45.8776 28.45 45.8476 28.245 45.7876 28.105C45.7376 27.965 45.6376 27.875 45.4876 27.835C45.3476 27.785 45.1376 27.76 44.8576 27.76C44.5776 27.76 44.3726 27.785 44.2426 27.835C44.1126 27.875 44.0276 27.965 43.9876 28.105C43.9476 28.245 43.9126 28.45 43.8826 28.72C43.7926 29.51 43.6976 30.235 43.5976 30.895C43.5076 31.555 43.3826 32.125 43.2226 32.605C43.0726 33.085 42.8726 33.46 42.6226 33.73C42.3726 33.99 42.0576 34.12 41.6776 34.12ZM53.8711 34.135C53.7611 34.085 53.6711 33.995 53.6011 33.865C53.5411 33.735 53.5111 33.53 53.5111 33.25C53.5111 33.16 53.5161 33.055 53.5261 32.935C53.5361 32.805 53.5561 32.69 53.5861 32.59H53.6161C53.5861 32.75 53.5161 32.925 53.4061 33.115C53.3061 33.295 53.1711 33.455 53.0011 33.595C52.8311 33.745 52.6161 33.87 52.3561 33.97C52.0961 34.06 51.7811 34.105 51.4111 34.105C50.7811 34.105 50.3011 33.965 49.9711 33.685C49.6411 33.395 49.4761 33.005 49.4761 32.515C49.4761 32.125 49.5661 31.795 49.7461 31.525C49.9361 31.245 50.1761 31.015 50.4661 30.835C50.7661 30.645 51.0861 30.495 51.4261 30.385C51.7761 30.275 52.1161 30.19 52.4461 30.13C52.7761 30.07 53.0661 30.02 53.3161 29.98C53.3161 29.57 53.3061 29.25 53.2861 29.02C53.2761 28.79 53.2461 28.61 53.1961 28.48C53.1561 28.34 53.0911 28.22 53.0011 28.12C52.8811 27.97 52.7411 27.86 52.5811 27.79C52.4311 27.71 52.2611 27.67 52.0711 27.67C51.7411 27.67 51.4811 27.775 51.2911 27.985C51.1011 28.185 50.9661 28.42 50.8861 28.69C50.8061 28.96 50.7611 29.2 50.7511 29.41C50.6411 29.41 50.5011 29.405 50.3311 29.395C50.1711 29.375 50.0511 29.345 49.9711 29.305C49.9911 29.055 49.9961 28.775 49.9861 28.465C49.9761 28.155 49.9461 27.89 49.8961 27.67C50.3061 27.46 50.7361 27.295 51.1861 27.175C51.6461 27.055 52.0661 26.995 52.4461 26.995C52.8161 26.995 53.1311 27.05 53.3911 27.16C53.6611 27.26 53.8761 27.395 54.0361 27.565C54.2961 27.815 54.4661 28.145 54.5461 28.555C54.6261 28.955 54.6661 29.49 54.6661 30.16V31.81C54.6661 32.09 54.6861 32.315 54.7261 32.485C54.7761 32.645 54.8661 32.765 54.9961 32.845C55.1261 32.915 55.3261 32.96 55.5961 32.98C55.5961 33.08 55.5911 33.195 55.5811 33.325C55.5711 33.445 55.5461 33.56 55.5061 33.67C55.2561 33.68 54.9761 33.73 54.6661 33.82C54.3661 33.9 54.1011 34.005 53.8711 34.135ZM51.8311 33.28C52.0511 33.28 52.2761 33.21 52.5061 33.07C52.7361 32.92 52.9261 32.69 53.0761 32.38C53.2361 32.07 53.3161 31.665 53.3161 31.165V30.595C53.0661 30.625 52.8011 30.67 52.5211 30.73C52.2411 30.78 51.9811 30.86 51.7411 30.97C51.5011 31.08 51.3061 31.235 51.1561 31.435C51.0061 31.625 50.9311 31.885 50.9311 32.215C50.9311 32.585 51.0211 32.855 51.2011 33.025C51.3811 33.195 51.5911 33.28 51.8311 33.28ZM60.7118 33.745L58.3718 28.735H58.5218L58.1768 31.945C58.1368 32.345 58.1318 32.65 58.1618 32.86C58.1918 33.06 58.2668 33.2 58.3868 33.28C58.5168 33.35 58.6968 33.39 58.9268 33.4C58.9568 33.5 58.9768 33.605 58.9868 33.715C58.9968 33.825 59.0018 33.935 59.0018 34.045C58.8218 34.025 58.6118 34.01 58.3718 34C58.1318 34 57.9168 34 57.7268 34C57.5468 34 57.3368 34 57.0968 34C56.8568 34.01 56.6618 34.025 56.5118 34.045C56.5118 33.925 56.5168 33.815 56.5268 33.715C56.5368 33.605 56.5568 33.5 56.5868 33.4C56.7868 33.39 56.9468 33.35 57.0668 33.28C57.1968 33.2 57.2968 33.055 57.3668 32.845C57.4368 32.625 57.4918 32.31 57.5318 31.9L57.8468 28.705C57.8868 28.295 57.8468 28.03 57.7268 27.91C57.6068 27.79 57.3868 27.73 57.0668 27.73C57.0368 27.64 57.0168 27.535 57.0068 27.415C56.9968 27.295 56.9918 27.185 56.9918 27.085C57.1318 27.095 57.2618 27.105 57.3818 27.115C57.5018 27.115 57.6168 27.12 57.7268 27.13C57.8468 27.13 57.9568 27.13 58.0568 27.13C58.1368 27.13 58.2168 27.13 58.2968 27.13C58.3868 27.13 58.4768 27.13 58.5668 27.13C58.6668 27.12 58.7568 27.115 58.8368 27.115C58.9268 27.105 59.0068 27.1 59.0768 27.1L61.5368 32.26H61.2368L63.6218 27.1C63.7218 27.1 63.8318 27.105 63.9518 27.115C64.0818 27.115 64.2118 27.12 64.3418 27.13C64.4718 27.13 64.5868 27.13 64.6868 27.13C64.7968 27.13 64.9068 27.13 65.0168 27.13C65.1368 27.12 65.2568 27.115 65.3768 27.115C65.4968 27.105 65.6118 27.095 65.7218 27.085C65.7218 27.195 65.7168 27.31 65.7068 27.43C65.6968 27.54 65.6768 27.64 65.6468 27.73C65.3568 27.73 65.1418 27.795 65.0018 27.925C64.8718 28.045 64.8268 28.32 64.8668 28.75L65.2268 32.125C65.2668 32.485 65.3168 32.755 65.3768 32.935C65.4368 33.105 65.5218 33.22 65.6318 33.28C65.7518 33.34 65.9018 33.38 66.0818 33.4C66.1118 33.49 66.1318 33.595 66.1418 33.715C66.1518 33.825 66.1568 33.935 66.1568 34.045C66.0668 34.035 65.9518 34.025 65.8118 34.015C65.6818 34.015 65.5418 34.01 65.3918 34C65.2418 34 65.0968 34 64.9568 34C64.8168 34 64.6918 34 64.5818 34C64.4318 34 64.2618 34 64.0718 34C63.8918 34.01 63.7118 34.015 63.5318 34.015C63.3618 34.025 63.2118 34.035 63.0818 34.045C63.0818 33.905 63.0868 33.79 63.0968 33.7C63.1068 33.6 63.1268 33.5 63.1568 33.4C63.3868 33.39 63.5568 33.36 63.6668 33.31C63.7768 33.25 63.8468 33.14 63.8768 32.98C63.9068 32.82 63.9018 32.58 63.8618 32.26L63.4568 28.72H63.6068L61.2668 33.67C61.1968 33.7 61.1118 33.72 61.0118 33.73C60.9218 33.74 60.8218 33.745 60.7118 33.745ZM21.4236 50.135C21.1336 49.915 20.8736 49.6 20.6436 49.19C20.4236 48.78 20.1986 48.34 19.9686 47.87C19.7486 47.39 19.4986 46.94 19.2186 46.52C18.9486 46.09 18.6236 45.74 18.2436 45.47C17.8736 45.19 17.4186 45.05 16.8786 45.05V44.36C17.2586 44.36 17.5736 44.295 17.8236 44.165C18.0836 44.025 18.3286 43.805 18.5586 43.505C18.7886 43.195 19.0536 42.79 19.3536 42.29C19.6636 41.79 19.9236 41.38 20.1336 41.06C20.3436 40.73 20.5336 40.47 20.7036 40.28C20.8836 40.09 21.0686 39.96 21.2586 39.89C21.4586 39.81 21.6986 39.77 21.9786 39.77C22.0986 39.77 22.2436 39.78 22.4136 39.8C22.5836 39.81 22.7236 39.83 22.8336 39.86C22.8236 40.09 22.8136 40.325 22.8036 40.565C22.8036 40.805 22.8086 41.05 22.8186 41.3C22.8386 41.55 22.8586 41.8 22.8786 42.05C22.7686 42.09 22.6386 42.125 22.4886 42.155C22.3486 42.175 22.2386 42.185 22.1586 42.185C22.0886 41.775 21.9986 41.49 21.8886 41.33C21.7786 41.16 21.6436 41.075 21.4836 41.075C21.2236 41.075 20.9986 41.21 20.8086 41.48C20.6286 41.74 20.3936 42.11 20.1036 42.59C19.8036 43.1 19.5486 43.495 19.3386 43.775C19.1386 44.055 18.9486 44.26 18.7686 44.39C18.5986 44.51 18.4086 44.61 18.1986 44.69L18.1536 44.465C18.4736 44.475 18.7536 44.515 18.9936 44.585C19.2436 44.655 19.4736 44.77 19.6836 44.93C19.8936 45.09 20.0986 45.315 20.2986 45.605C20.5086 45.885 20.7336 46.25 20.9736 46.7C21.2836 47.3 21.5386 47.775 21.7386 48.125C21.9486 48.465 22.1286 48.72 22.2786 48.89C22.4386 49.06 22.5986 49.175 22.7586 49.235C22.9286 49.285 23.1286 49.32 23.3586 49.34C23.3586 49.39 23.3536 49.455 23.3436 49.535C23.3436 49.615 23.3386 49.695 23.3286 49.775C23.3186 49.855 23.3036 49.93 23.2836 50C23.0136 50 22.7836 50 22.5936 50C22.4036 50.01 22.2186 50.025 22.0386 50.045C21.8686 50.065 21.6636 50.095 21.4236 50.135ZM14.3586 50.045C14.3586 49.905 14.3636 49.785 14.3736 49.685C14.3836 49.575 14.4036 49.48 14.4336 49.4C14.7036 49.38 14.9136 49.335 15.0636 49.265C15.2136 49.185 15.3186 49.055 15.3786 48.875C15.4386 48.685 15.4686 48.425 15.4686 48.095V41.765C15.4686 41.425 15.4386 41.165 15.3786 40.985C15.3186 40.805 15.2136 40.675 15.0636 40.595C14.9136 40.515 14.7036 40.47 14.4336 40.46C14.4036 40.38 14.3836 40.285 14.3736 40.175C14.3636 40.065 14.3586 39.945 14.3586 39.815C14.5486 39.825 14.7386 39.835 14.9286 39.845C15.1286 39.845 15.3336 39.85 15.5436 39.86C15.7536 39.86 15.9636 39.86 16.1736 39.86C16.3936 39.86 16.6036 39.86 16.8036 39.86C17.0036 39.85 17.1986 39.845 17.3886 39.845C17.5886 39.835 17.7886 39.825 17.9886 39.815C17.9886 39.945 17.9836 40.065 17.9736 40.175C17.9636 40.285 17.9436 40.38 17.9136 40.46C17.6536 40.47 17.4436 40.515 17.2836 40.595C17.1336 40.675 17.0286 40.805 16.9686 40.985C16.9086 41.165 16.8786 41.425 16.8786 41.765V48.095C16.8786 48.425 16.9086 48.685 16.9686 48.875C17.0286 49.055 17.1336 49.185 17.2836 49.265C17.4436 49.335 17.6536 49.38 17.9136 49.4C17.9436 49.48 17.9636 49.575 17.9736 49.685C17.9836 49.785 17.9886 49.905 17.9886 50.045C17.6886 50.025 17.3836 50.01 17.0736 50C16.7636 50 16.4636 50 16.1736 50C15.8836 50 15.5736 50 15.2436 50C14.9136 50.01 14.6186 50.025 14.3586 50.045ZM28.3149 45.53C28.5749 44.89 28.6349 44.455 28.4949 44.225C28.3649 43.985 28.0799 43.825 27.6399 43.745C27.5999 43.635 27.5699 43.53 27.5499 43.43C27.5399 43.32 27.5349 43.21 27.5349 43.1C27.7649 43.11 27.9999 43.12 28.2399 43.13C28.4799 43.13 28.7399 43.13 29.0199 43.13C29.2999 43.13 29.5649 43.13 29.8149 43.13C30.0649 43.12 30.2999 43.11 30.5199 43.1C30.5199 43.2 30.5149 43.305 30.5049 43.415C30.5049 43.525 30.4799 43.635 30.4299 43.745C30.2499 43.785 30.0949 43.855 29.9649 43.955C29.8449 44.055 29.7299 44.21 29.6199 44.42C29.5099 44.63 29.3749 44.925 29.2149 45.305L27.0099 50.555C26.7299 51.235 26.4749 51.785 26.2449 52.205C26.0249 52.625 25.8149 52.945 25.6149 53.165C25.4249 53.385 25.2299 53.535 25.0299 53.615C24.8399 53.695 24.6299 53.735 24.3999 53.735C24.0999 53.735 23.8599 53.695 23.6799 53.615C23.5099 53.535 23.3749 53.46 23.2749 53.39C23.2349 53.24 23.2199 53.05 23.2299 52.82C23.2399 52.6 23.2599 52.425 23.2899 52.295C23.4599 52.325 23.6249 52.345 23.7849 52.355C23.9449 52.375 24.0999 52.385 24.2499 52.385C24.5399 52.385 24.8149 52.315 25.0749 52.175C25.3449 52.035 25.5749 51.81 25.7649 51.5C25.9049 51.29 26.1149 50.875 26.3949 50.255C26.6749 49.645 26.9699 48.94 27.2799 48.14L28.3149 45.53ZM26.5599 50.315C26.3199 49.785 26.0649 49.23 25.7949 48.65C25.5349 48.06 25.2849 47.495 25.0449 46.955C24.8049 46.415 24.5949 45.96 24.4149 45.59C24.1849 45.09 23.9899 44.715 23.8299 44.465C23.6799 44.215 23.5349 44.04 23.3949 43.94C23.2649 43.84 23.1149 43.775 22.9449 43.745C22.9149 43.655 22.8899 43.555 22.8699 43.445C22.8599 43.335 22.8549 43.22 22.8549 43.1C23.1449 43.11 23.4349 43.12 23.7249 43.13C24.0149 43.13 24.2899 43.13 24.5499 43.13C24.8099 43.13 25.1299 43.13 25.5099 43.13C25.8899 43.12 26.2349 43.11 26.5449 43.1C26.5449 43.23 26.5349 43.35 26.5149 43.46C26.5049 43.56 26.4799 43.655 26.4399 43.745C25.8999 43.835 25.5899 43.995 25.5099 44.225C25.4299 44.445 25.5249 44.835 25.7949 45.395C25.9349 45.685 26.0949 46.035 26.2749 46.445C26.4549 46.845 26.6299 47.25 26.7999 47.66C26.9699 48.06 27.1149 48.415 27.2349 48.725L26.5599 50.315ZM31.3001 53.675C31.3001 53.535 31.3051 53.41 31.3151 53.3C31.3251 53.2 31.3451 53.11 31.3751 53.03C31.6451 53.01 31.8551 52.96 32.0051 52.88C32.1551 52.81 32.2601 52.68 32.3201 52.49C32.3801 52.31 32.4101 52.055 32.4101 51.725V45.125C32.4101 44.885 32.3851 44.69 32.3351 44.54C32.2851 44.39 32.1801 44.275 32.0201 44.195C31.8601 44.115 31.6151 44.07 31.2851 44.06C31.2851 43.95 31.2951 43.85 31.3151 43.76C31.3351 43.67 31.3701 43.585 31.4201 43.505C31.7301 43.485 32.0851 43.425 32.4851 43.325C32.8851 43.225 33.2001 43.115 33.4301 42.995C33.5201 43.025 33.5951 43.09 33.6551 43.19C33.7251 43.28 33.7601 43.435 33.7601 43.655C33.7601 43.885 33.7251 44.105 33.6551 44.315C33.5951 44.515 33.5101 44.785 33.4001 45.125L33.7601 45.41V51.425C33.7601 51.855 33.8051 52.18 33.8951 52.4C33.9851 52.63 34.1301 52.785 34.3301 52.865C34.5301 52.955 34.7851 53.01 35.0951 53.03C35.1251 53.11 35.1451 53.2 35.1551 53.3C35.1651 53.41 35.1701 53.535 35.1701 53.675C35.0201 53.665 34.8401 53.655 34.6301 53.645C34.4301 53.645 34.2151 53.64 33.9851 53.63C33.7551 53.63 33.5201 53.63 33.2801 53.63C32.9301 53.63 32.5601 53.63 32.1701 53.63C31.7901 53.64 31.5001 53.655 31.3001 53.675ZM35.0051 50.135C34.7251 50.135 34.4751 50.11 34.2551 50.06C34.0451 50.01 33.8101 49.945 33.5501 49.865V48.71C33.7501 48.92 33.9651 49.095 34.1951 49.235C34.4351 49.375 34.7301 49.445 35.0801 49.445C35.2901 49.445 35.5151 49.405 35.7551 49.325C36.0051 49.235 36.2451 49.085 36.4751 48.875C36.7051 48.665 36.8901 48.37 37.0301 47.99C37.1801 47.61 37.2551 47.12 37.2551 46.52C37.2551 45.99 37.1801 45.535 37.0301 45.155C36.8901 44.765 36.6901 44.465 36.4301 44.255C36.1801 44.045 35.8951 43.94 35.5751 43.94C35.2851 43.94 35.0001 44.035 34.7201 44.225C34.4401 44.405 34.2101 44.705 34.0301 45.125C33.8501 45.545 33.7601 46.105 33.7601 46.805L33.3251 45.215C33.4551 44.895 33.5651 44.65 33.6551 44.48C33.7551 44.31 33.8301 44.185 33.8801 44.105C33.9701 43.955 34.1101 43.795 34.3001 43.625C34.5001 43.445 34.7401 43.295 35.0201 43.175C35.3001 43.055 35.6051 42.995 35.9351 42.995C36.5251 42.995 37.0251 43.11 37.4351 43.34C37.8551 43.57 38.1751 43.92 38.3951 44.39C38.6251 44.86 38.7401 45.46 38.7401 46.19C38.7401 46.93 38.5851 47.6 38.2751 48.2C37.9651 48.8 37.5301 49.275 36.9701 49.625C36.4101 49.965 35.7551 50.135 35.0051 50.135ZM44.8823 45.53C45.1423 44.89 45.2023 44.455 45.0623 44.225C44.9323 43.985 44.6473 43.825 44.2073 43.745C44.1673 43.635 44.1373 43.53 44.1173 43.43C44.1073 43.32 44.1023 43.21 44.1023 43.1C44.3323 43.11 44.5673 43.12 44.8073 43.13C45.0473 43.13 45.3073 43.13 45.5873 43.13C45.8673 43.13 46.1323 43.13 46.3823 43.13C46.6323 43.12 46.8673 43.11 47.0873 43.1C47.0873 43.2 47.0823 43.305 47.0723 43.415C47.0723 43.525 47.0473 43.635 46.9973 43.745C46.8173 43.785 46.6623 43.855 46.5323 43.955C46.4123 44.055 46.2973 44.21 46.1873 44.42C46.0773 44.63 45.9423 44.925 45.7823 45.305L43.5773 50.555C43.2973 51.235 43.0423 51.785 42.8123 52.205C42.5923 52.625 42.3823 52.945 42.1823 53.165C41.9923 53.385 41.7973 53.535 41.5973 53.615C41.4073 53.695 41.1973 53.735 40.9673 53.735C40.6673 53.735 40.4273 53.695 40.2473 53.615C40.0773 53.535 39.9423 53.46 39.8423 53.39C39.8023 53.24 39.7873 53.05 39.7973 52.82C39.8073 52.6 39.8273 52.425 39.8573 52.295C40.0273 52.325 40.1923 52.345 40.3523 52.355C40.5123 52.375 40.6673 52.385 40.8173 52.385C41.1073 52.385 41.3823 52.315 41.6423 52.175C41.9123 52.035 42.1423 51.81 42.3323 51.5C42.4723 51.29 42.6823 50.875 42.9623 50.255C43.2423 49.645 43.5373 48.94 43.8473 48.14L44.8823 45.53ZM43.1273 50.315C42.8873 49.785 42.6323 49.23 42.3623 48.65C42.1023 48.06 41.8523 47.495 41.6123 46.955C41.3723 46.415 41.1623 45.96 40.9823 45.59C40.7523 45.09 40.5573 44.715 40.3973 44.465C40.2473 44.215 40.1023 44.04 39.9623 43.94C39.8323 43.84 39.6823 43.775 39.5123 43.745C39.4823 43.655 39.4573 43.555 39.4373 43.445C39.4273 43.335 39.4223 43.22 39.4223 43.1C39.7123 43.11 40.0023 43.12 40.2923 43.13C40.5823 43.13 40.8573 43.13 41.1173 43.13C41.3773 43.13 41.6973 43.13 42.0773 43.13C42.4573 43.12 42.8023 43.11 43.1123 43.1C43.1123 43.23 43.1023 43.35 43.0823 43.46C43.0723 43.56 43.0473 43.655 43.0073 43.745C42.4673 43.835 42.1573 43.995 42.0773 44.225C41.9973 44.445 42.0923 44.835 42.3623 45.395C42.5023 45.685 42.6623 46.035 42.8423 46.445C43.0223 46.845 43.1973 47.25 43.3673 47.66C43.5373 48.06 43.6823 48.415 43.8023 48.725L43.1273 50.315ZM47.9984 50.12C47.7884 50.12 47.5984 50.085 47.4284 50.015C47.2584 49.945 47.1284 49.87 47.0384 49.79C46.9884 49.62 46.9734 49.415 46.9934 49.175C47.0134 48.925 47.0484 48.735 47.0984 48.605C47.2084 48.635 47.3234 48.655 47.4434 48.665C47.5634 48.675 47.6534 48.68 47.7134 48.68C48.1134 48.68 48.4284 48.515 48.6584 48.185C48.8984 47.855 49.0784 47.39 49.1984 46.79C49.3284 46.18 49.4284 45.465 49.4984 44.645C49.5184 44.395 49.5184 44.21 49.4984 44.09C49.4884 43.96 49.4184 43.875 49.2884 43.835C49.1584 43.785 48.9384 43.75 48.6284 43.73C48.5984 43.64 48.5784 43.54 48.5684 43.43C48.5584 43.31 48.5534 43.2 48.5534 43.1C48.8134 43.11 49.1784 43.12 49.6484 43.13C50.1284 43.13 50.7784 43.13 51.5984 43.13C52.1384 43.13 52.5884 43.13 52.9484 43.13C53.3184 43.12 53.6284 43.115 53.8784 43.115C54.1284 43.105 54.3384 43.095 54.5084 43.085C54.5084 43.215 54.5034 43.335 54.4934 43.445C54.4834 43.545 54.4634 43.64 54.4334 43.73C54.1334 43.73 53.9084 43.82 53.7584 44C53.6184 44.17 53.5484 44.515 53.5484 45.035V48.095C53.5484 48.615 53.6184 48.965 53.7584 49.145C53.9084 49.315 54.1334 49.4 54.4334 49.4C54.4634 49.49 54.4834 49.585 54.4934 49.685C54.5034 49.785 54.5084 49.905 54.5084 50.045C54.2884 50.025 54.0384 50.01 53.7584 50C53.4784 50 53.1834 50 52.8734 50C52.5634 50 52.2684 50 51.9884 50C51.7084 50.01 51.4584 50.025 51.2384 50.045C51.2384 49.905 51.2434 49.785 51.2534 49.685C51.2634 49.585 51.2834 49.49 51.3134 49.4C51.6134 49.4 51.8334 49.315 51.9734 49.145C52.1234 48.965 52.1984 48.615 52.1984 48.095V44.72C52.1984 44.45 52.1684 44.245 52.1084 44.105C52.0584 43.965 51.9584 43.875 51.8084 43.835C51.6684 43.785 51.4584 43.76 51.1784 43.76C50.8984 43.76 50.6934 43.785 50.5634 43.835C50.4334 43.875 50.3484 43.965 50.3084 44.105C50.2684 44.245 50.2334 44.45 50.2034 44.72C50.1134 45.51 50.0184 46.235 49.9184 46.895C49.8284 47.555 49.7034 48.125 49.5434 48.605C49.3934 49.085 49.1934 49.46 48.9434 49.73C48.6934 49.99 48.3784 50.12 47.9984 50.12ZM60.5854 45.53C60.8454 44.89 60.9054 44.455 60.7654 44.225C60.6354 43.985 60.3504 43.825 59.9104 43.745C59.8704 43.635 59.8404 43.53 59.8204 43.43C59.8104 43.32 59.8054 43.21 59.8054 43.1C60.0354 43.11 60.2704 43.12 60.5104 43.13C60.7504 43.13 61.0104 43.13 61.2904 43.13C61.5704 43.13 61.8354 43.13 62.0854 43.13C62.3354 43.12 62.5704 43.11 62.7904 43.1C62.7904 43.2 62.7854 43.305 62.7754 43.415C62.7754 43.525 62.7504 43.635 62.7004 43.745C62.5204 43.785 62.3654 43.855 62.2354 43.955C62.1154 44.055 62.0004 44.21 61.8904 44.42C61.7804 44.63 61.6454 44.925 61.4854 45.305L59.2804 50.555C59.0004 51.235 58.7454 51.785 58.5154 52.205C58.2954 52.625 58.0854 52.945 57.8854 53.165C57.6954 53.385 57.5004 53.535 57.3004 53.615C57.1104 53.695 56.9004 53.735 56.6704 53.735C56.3704 53.735 56.1304 53.695 55.9504 53.615C55.7804 53.535 55.6454 53.46 55.5454 53.39C55.5054 53.24 55.4904 53.05 55.5004 52.82C55.5104 52.6 55.5304 52.425 55.5604 52.295C55.7304 52.325 55.8954 52.345 56.0554 52.355C56.2154 52.375 56.3704 52.385 56.5204 52.385C56.8104 52.385 57.0854 52.315 57.3454 52.175C57.6154 52.035 57.8454 51.81 58.0354 51.5C58.1754 51.29 58.3854 50.875 58.6654 50.255C58.9454 49.645 59.2404 48.94 59.5504 48.14L60.5854 45.53ZM58.8304 50.315C58.5904 49.785 58.3354 49.23 58.0654 48.65C57.8054 48.06 57.5554 47.495 57.3154 46.955C57.0754 46.415 56.8654 45.96 56.6854 45.59C56.4554 45.09 56.2604 44.715 56.1004 44.465C55.9504 44.215 55.8054 44.04 55.6654 43.94C55.5354 43.84 55.3854 43.775 55.2154 43.745C55.1854 43.655 55.1604 43.555 55.1404 43.445C55.1304 43.335 55.1254 43.22 55.1254 43.1C55.4154 43.11 55.7054 43.12 55.9954 43.13C56.2854 43.13 56.5604 43.13 56.8204 43.13C57.0804 43.13 57.4004 43.13 57.7804 43.13C58.1604 43.12 58.5054 43.11 58.8154 43.1C58.8154 43.23 58.8054 43.35 58.7854 43.46C58.7754 43.56 58.7504 43.655 58.7104 43.745C58.1704 43.835 57.8604 43.995 57.7804 44.225C57.7004 44.445 57.7954 44.835 58.0654 45.395C58.2054 45.685 58.3654 46.035 58.5454 46.445C58.7254 46.845 58.9004 47.25 59.0704 47.66C59.2404 48.06 59.3854 48.415 59.5054 48.725L58.8304 50.315ZM63.5556 50.045C63.5556 49.905 63.5606 49.785 63.5706 49.685C63.5806 49.585 63.6006 49.49 63.6306 49.4C63.9806 49.4 64.2356 49.315 64.3956 49.145C64.5656 48.965 64.6506 48.615 64.6506 48.095V45.035C64.6506 44.515 64.5656 44.17 64.3956 44C64.2356 43.82 63.9806 43.73 63.6306 43.73C63.6006 43.64 63.5806 43.545 63.5706 43.445C63.5606 43.335 63.5556 43.215 63.5556 43.085C63.8056 43.095 64.0856 43.105 64.3956 43.115C64.7056 43.125 65.0156 43.13 65.3256 43.13C65.6156 43.13 65.9056 43.125 66.1956 43.115C66.4956 43.105 66.7406 43.095 66.9306 43.085C66.9306 43.215 66.9256 43.335 66.9156 43.445C66.9056 43.545 66.8856 43.64 66.8556 43.73C66.5356 43.73 66.3106 43.82 66.1806 44C66.0506 44.17 65.9856 44.515 65.9856 45.035V48.395C65.9856 48.635 66.0056 48.83 66.0456 48.98C66.0856 49.12 66.1706 49.22 66.3006 49.28C66.4006 49.32 66.5356 49.35 66.7056 49.37C66.8856 49.38 67.0856 49.385 67.3056 49.385C67.5056 49.385 67.6956 49.38 67.8756 49.37C68.0556 49.35 68.1956 49.32 68.2956 49.28C68.4256 49.22 68.5056 49.12 68.5356 48.98C68.5756 48.83 68.5956 48.635 68.5956 48.395V45.035C68.5956 44.515 68.5256 44.17 68.3856 44C68.2556 43.82 68.0306 43.73 67.7106 43.73C67.6806 43.64 67.6606 43.545 67.6506 43.445C67.6406 43.335 67.6356 43.215 67.6356 43.085C67.8356 43.095 68.0806 43.105 68.3706 43.115C68.6706 43.125 68.9656 43.13 69.2556 43.13C69.5456 43.13 69.8356 43.125 70.1256 43.115C70.4256 43.105 70.6756 43.095 70.8756 43.085C70.8756 43.215 70.8706 43.335 70.8606 43.445C70.8506 43.545 70.8306 43.64 70.8006 43.73C70.4806 43.73 70.2506 43.82 70.1106 44C69.9806 44.17 69.9156 44.515 69.9156 45.035V48.395C69.9156 48.635 69.9356 48.83 69.9756 48.98C70.0156 49.12 70.1006 49.22 70.2306 49.28C70.3306 49.32 70.4706 49.35 70.6506 49.37C70.8306 49.38 71.0206 49.385 71.2206 49.385C71.4306 49.385 71.6206 49.38 71.7906 49.37C71.9706 49.35 72.1106 49.32 72.2106 49.28C72.3406 49.22 72.4256 49.12 72.4656 48.98C72.5056 48.83 72.5256 48.635 72.5256 48.395V45.035C72.5256 44.515 72.4606 44.17 72.3306 44C72.2006 43.82 71.9756 43.73 71.6556 43.73C71.6256 43.64 71.6056 43.545 71.5956 43.445C71.5856 43.335 71.5806 43.215 71.5806 43.085C71.7706 43.095 72.0106 43.105 72.3006 43.115C72.6006 43.125 72.8956 43.13 73.1856 43.13C73.5056 43.13 73.8156 43.125 74.1156 43.115C74.4256 43.105 74.7006 43.095 74.9406 43.085C74.9406 43.215 74.9356 43.335 74.9256 43.445C74.9156 43.545 74.9006 43.64 74.8806 43.73C74.5406 43.73 74.2856 43.82 74.1156 44C73.9456 44.17 73.8606 44.515 73.8606 45.035V48.095C73.8606 48.615 73.9456 48.965 74.1156 49.145C74.2856 49.315 74.5406 49.4 74.8806 49.4C74.9006 49.49 74.9156 49.585 74.9256 49.685C74.9356 49.785 74.9406 49.905 74.9406 50.045C74.7606 50.035 74.5556 50.025 74.3256 50.015C74.1056 50.015 73.8056 50.01 73.4256 50C73.0556 50 72.5606 50 71.9406 50H66.5556C65.9456 50 65.4556 50 65.0856 50C64.7156 50.01 64.4156 50.015 64.1856 50.015C63.9656 50.025 63.7556 50.035 63.5556 50.045Z" fill="#174274"/>
</svg>
